PathFileType	4	(X/Y/Z) flx_0kg_2.trc																										
DataRate	CameraRate	NumFrames	NumMarkers	Units	OrigDataRate	OrigDataStartFrame	OrigNumFrames																					
100	100	34	9	mm	100	1	848																					
Frame#	Time	gu			centelbow			EpL			centpxt8			centijc7			ij			ts			aa			ai		
		X1	Y1	Z1	X2	Y2	Z2	X3	Y3	Z3	X4	Y4	Z4	X5	Y5	Z5	X6	Y6	Z6	X7	Y7	Z7	X8	Y8	Z8	X9	Y9	Z9  
0	0	-70.18	-13.6	169.891	-112.49	-256.599	181.966	-93.311	-254.597	207.803	-46.816	-153.158	-8.669	-46.816	31.938	-8.669	0	0	0	-132.936	24.819	54.576	-104.248	22.136	170.311	-144.793	-87.931	60.272
1	0.01	-70.079	-13.632	169.902	-112.413	-256.627	181.966	-93.243	-254.625	207.81	-46.816	-153.158	-8.669	-46.816	31.938	-8.669	0	0	0	-132.861	24.777	54.584	-104.184	22.088	170.322	-144.732	-87.972	60.277
2	0.02	-70.006	-13.643	169.938	-112.361	-256.636	181.982	-93.201	-254.636	207.834	-46.816	-153.158	-8.669	-46.816	31.938	-8.669	0	0	0	-132.793	24.781	54.589	-104.132	22.086	170.33	-144.674	-87.967	60.277
3	0.03	-69.987	-13.687	170.024	-112.342	-256.681	182.032	-93.194	-254.683	207.893	-46.816	-153.158	-8.669	-46.816	31.938	-8.669	0	0	0	-132.773	24.83	54.591	-104.135	22.135	170.338	-144.658	-87.917	60.276
4	0.04	-70.003	-13.796	170.101	-112.35	-256.794	182.068	-93.215	-254.796	207.939	-46.816	-153.158	-8.669	-46.816	31.938	-8.669	0	0	0	-132.809	24.844	54.596	-104.194	22.147	170.348	-144.7	-87.903	60.279
5	0.05	-70.029	-13.911	170.094	-112.383	-256.909	182.022	-93.258	-254.914	207.9	-46.816	-153.158	-8.669	-46.816	31.938	-8.669	0	0	0	-132.858	24.799	54.582	-104.257	22.093	170.338	-144.755	-87.948	60.256
6	0.06	-70.016	-13.923	170.007	-112.38	-256.92	181.915	-93.263	-254.927	207.799	-46.816	-153.158	-8.669	-46.816	31.938	-8.669	0	0	0	-132.83	24.775	54.512	-104.23	22.058	170.268	-144.73	-87.972	60.176
7	0.07	-69.906	-13.825	169.881	-112.265	-256.822	181.801	-93.154	-254.826	207.689	-46.816	-153.158	-8.669	-46.816	31.938	-8.669	0	0	0	-132.676	24.826	54.398	-104.073	22.105	170.154	-144.578	-87.921	60.059
8	0.08	-69.758	-13.717	169.771	-112.096	-256.717	181.717	-92.991	-254.715	207.609	-46.816	-153.158	-8.669	-46.816	31.938	-8.669	0	0	0	-132.515	24.881	54.303	-103.919	22.157	170.06	-144.425	-87.865	59.962
9	0.09	-69.733	-13.669	169.764	-112.058	-256.671	181.713	-92.958	-254.667	207.609	-46.816	-153.158	-8.669	-46.816	31.938	-8.669	0	0	0	-132.532	24.867	54.254	-103.959	22.134	170.017	-144.461	-87.877	59.907
10	0.1	-69.884	-13.668	169.856	-112.232	-256.668	181.773	-93.138	-254.667	207.673	-46.816	-153.158	-8.669	-46.816	31.938	-8.669	0	0	0	-132.682	24.852	54.263	-104.143	22.106	170.033	-144.644	-87.89	59.906
11	0.11	-70.062	-13.693	169.957	-112.481	-256.683	181.833	-93.39	-254.691	207.736	-46.816	-153.158	-8.669	-46.816	31.938	-8.669	0	0	0	-132.734	24.896	54.359	-104.234	22.133	170.138	-144.737	-87.842	59.992
12	0.12	-70.123	-13.734	170.033	-112.63	-256.709	181.895	-93.542	-254.725	207.801	-46.816	-153.158	-8.669	-46.816	31.938	-8.669	0	0	0	-132.622	24.906	54.506	-104.162	22.133	170.296	-144.668	-87.827	60.137
13	0.13	-70.113	-13.768	170.063	-112.68	-256.732	181.933	-93.594	-254.751	207.842	-46.816	-153.158	-8.669	-46.816	31.938	-8.669	0	0	0	-132.543	24.8	54.607	-104.113	22.027	170.404	-144.621	-87.93	60.241
14	0.14	-70.163	-13.777	169.992	-112.737	-256.74	181.861	-93.653	-254.759	207.771	-46.816	-153.158	-8.669	-46.816	31.938	-8.669	0	0	0	-132.678	24.631	54.615	-104.265	21.859	170.416	-144.765	-88.098	60.25
15	0.15	-70.278	-13.774	169.841	-112.827	-256.742	181.701	-93.741	-254.761	207.609	-46.816	-153.158	-8.669	-46.816	31.938	-8.669	0	0	0	-132.952	24.506	54.555	-104.54	21.733	170.356	-145.033	-88.223	60.187
16	0.16	-70.34	-13.796	169.739	-112.882	-256.765	181.598	-93.796	-254.784	207.506	-46.816	-153.158	-8.669	-46.816	31.938	-8.669	0	0	0	-133.137	24.482	54.457	-104.717	21.714	170.256	-145.219	-88.247	60.095
17	0.17	-70.253	-13.85	169.766	-112.849	-256.809	181.631	-93.764	-254.831	207.54	-46.816	-153.158	-8.669	-46.816	31.938	-8.669	0	0	0	-133.088	24.548	54.373	-104.661	21.788	170.171	-145.184	-88.179	60.023
18	0.18	-70.023	-13.889	169.88	-112.711	-256.832	181.742	-93.63	-254.861	207.654	-46.816	-153.158	-8.669	-46.816	31.938	-8.669	0	0	0	-132.807	24.664	54.371	-104.388	21.907	170.171	-144.915	-88.062	60.027
19	0.19	-69.775	-13.874	170.016	-112.524	-256.807	181.872	-93.448	-254.84	207.788	-46.816	-153.158	-8.669	-46.816	31.938	-8.669	0	0	0	-132.461	24.78	54.451	-104.069	22.021	170.258	-144.572	-87.946	60.102
20	0.2	-69.687	-13.834	170.119	-112.424	-256.768	181.993	-93.353	-254.797	207.913	-46.816	-153.158	-8.669	-46.816	31.938	-8.669	0	0	0	-132.276	24.88	54.512	-103.912	22.121	170.325	-144.377	-87.847	60.158
21	0.21	-69.791	-13.822	170.149	-112.49	-256.761	182.062	-93.422	-254.782	207.983	-46.816	-153.158	-8.669	-46.816	31.938	-8.669	0	0	0	-132.298	24.987	54.487	-103.946	22.235	170.304	-144.386	-87.741	60.135
22	0.22	-69.928	-13.863	170.135	-112.635	-256.799	182.065	-93.567	-254.819	207.986	-46.816	-153.158	-8.669	-46.816	31.938	-8.669	0	0	0	-132.385	25.059	54.427	-104.031	22.309	170.243	-144.471	-87.669	60.077
23	0.23	-69.953	-13.928	170.136	-112.707	-256.858	182.04	-93.638	-254.884	207.961	-46.816	-153.158	-8.669	-46.816	31.938	-8.669	0	0	0	-132.408	25.005	54.386	-104.045	22.243	170.2	-144.513	-87.721	60.03
24	0.24	-69.908	-13.972	170.161	-112.687	-256.9	182.023	-93.621	-254.932	207.947	-46.816	-153.158	-8.669	-46.816	31.938	-8.669	0	0	0	-132.399	24.846	54.356	-104.033	22.063	170.168	-144.535	-87.877	59.987
25	0.25	-69.902	-13.976	170.177	-112.675	-256.905	182.018	-93.613	-254.939	207.945	-46.816	-153.158	-8.669	-46.816	31.938	-8.669	0	0	0	-132.463	24.718	54.334	-104.102	21.923	170.147	-144.619	-88.004	59.958
26	0.26	-69.929	-13.941	170.151	-112.692	-256.872	181.998	-93.63	-254.904	207.925	-46.816	-153.158	-8.669	-46.816	31.938	-8.669	0	0	0	-132.586	24.719	54.326	-104.227	21.924	170.139	-144.739	-88.003	59.949
27	0.27	-69.945	-13.888	170.09	-112.701	-256.819	181.954	-93.635	-254.85	207.877	-46.816	-153.158	-8.669	-46.816	31.938	-8.669	0	0	0	-132.673	24.807	54.293	-104.308	22.015	170.105	-144.808	-87.918	59.915
28	0.28	-69.962	-13.875	170.058	-112.712	-256.806	181.927	-93.643	-254.836	207.848	-46.816	-153.158	-8.669	-46.816	31.938	-8.669	0	0	0	-132.692	24.881	54.237	-104.325	22.091	170.048	-144.811	-87.845	59.857
29	0.29	-70.003	-13.935	170.073	-112.773	-256.864	181.936	-93.704	-254.896	207.857	-46.816	-153.158	-8.669	-46.816	31.938	-8.669	0	0	0	-132.666	24.921	54.219	-104.308	22.136	170.033	-144.771	-87.806	59.839
30	0.3	-70.119	-14.006	170.069	-112.939	-256.926	181.926	-93.871	-254.963	207.849	-46.816	-153.158	-8.669	-46.816	31.938	-8.669	0	0	0	-132.649	24.96	54.229	-104.297	22.18	170.044	-144.745	-87.768	59.851
31	0.31	-70.325	-14.034	170.037	-113.179	-256.948	181.889	-94.113	-254.987	207.813	-46.816	-153.158	-8.669	-46.816	31.938	-8.669	0	0	0	-132.687	24.972	54.205	-104.331	22.188	170.02	-144.787	-87.756	59.826
32	0.32	-70.505	-14.053	170.041	-113.341	-256.971	181.887	-94.277	-255.009	207.812	-46.816	-153.158	-8.669	-46.816	31.938	-8.669	0	0	0	-132.735	24.907	54.164	-104.373	22.114	169.977	-144.847	-87.82	59.779
33	0.33	-70.557	-14.087	170.086	-113.352	-257.012	181.928	-94.288	-255.047	207.853	-46.816	-153.158	-8.669	-46.816	31.938	-8.669	0	0	0	-132.728	24.813	54.149	-104.366	22.011	169.962	-144.851	-87.914	59.758
